<?xml version="1.0" encoding="utf-8"?>
<!-- Generator: Adobe Illustrator 13.0.0, SVG Export Plug-In . SVG Version: 6.00 Build 14576)  -->
<!DOCTYPE svg PUBLIC "-//W3C//DTD SVG 1.1//EN" "http://www.w3.org/Graphics/SVG/1.1/DTD/svg11.dtd">
<svg version="1.1" id="Layer_1" xmlns="http://www.w3.org/2000/svg" xmlns:xlink="http://www.w3.org/1999/xlink" x="0px" y="0px"
	 width="247.335px" height="100.427px" viewBox="0 0 247.335 100.427" enable-background="new 0 0 247.335 100.427"
	 xml:space="preserve">
<g>
	<g>
		<path fill="#FFFFFF" d="M60.021,25.622L60.021,25.622l19.763,28.299h6.554L63.336,20.596l0.004-0.006l-3.477-5.04l-0.005,0.007
			l-2.278-3.301l0.004-0.006l-3.478-5.038l-0.004,0.006l-2.211-3.203l0.004-0.006l-1.999-2.895C49.671,0.79,49.287,0,48.431,0
			c-0.111,0-0.212,0.013-0.308,0.036c-0.001,0-0.002,0-0.003,0c-0.002,0.001-0.004,0.002-0.007,0.002
			c-0.078,0.02-0.151,0.047-0.22,0.079c-0.002,0.001-0.004,0.002-0.005,0.002c-0.503,0.236-0.759,0.764-0.931,0.997l-1.849,2.769
			l-7.696,11.49l-2.487-3.724l-1.837-2.765h0c-0.226-0.325-0.612-1.112-1.468-1.112c-0.164,0-0.312,0.028-0.442,0.077
			c-0.572,0.208-0.846,0.792-1.031,1.037l-1.98,2.968l0,0L0,53.921h6.555L31.6,16.933l2.396,3.545L11.597,53.921h6.556
			l19.225-28.439l2.344,3.466L23.196,53.921h6.554l13.346-19.98l0,0l2.415,3.574v0l0,0L34.793,53.921h6.556l7.534-11.42l7.72,11.42
			h6.555L52.187,37.494l2.302-3.488l13.706,19.916h6.556L57.798,28.989l0-0.001l0,0L60.021,25.622L60.021,25.622 M50.728,12.316
			L50.728,12.316L50.728,12.316l-2.104,3.179l-2.253-3.314l2.096-3.102L50.728,12.316z M42.95,17.24l2.304,3.348l-2.17,3.278
			l-2.292-3.433L42.95,17.24z M48.819,32.453l-2.365-3.541l2.231-3.339l2.375,3.451L48.819,32.453z M54.374,23.951L54.374,23.951
			l-2.323-3.417l0-0.001l2.159-3.232l2.329,3.336L54.374,23.951L54.374,23.951z"/>
	</g>
</g>
<g>
	<path fill="#FFFFFF" d="M100.151,30.979c-1.086,0-2.792-0.104-3.593-0.104s-2.507,0.104-3.593,0.104V30.1l2.275-0.104V15.573
		l-2.275-0.104V14.59c1.085,0,2.792,0.104,3.593,0.104s2.507-0.104,3.593-0.104v0.879l-2.274,0.104v14.423l2.274,0.104V30.979"/>
	<path fill="#FFFFFF" d="M106.717,18.649c3.515,0,4.084,2.042,4.084,3.023c0,1.086-0.724,1.732-1.551,1.732
		c-0.724,0-1.267-0.518-1.267-1.241c0-1.085,1.008-1.215,1.008-1.215c0-0.388-0.439-1.396-2.016-1.396
		c-3.05,0-3.541,2.843-3.541,5.454c0,1.784,0.051,5.325,3.283,5.325c2.353,0,3.722-2.456,3.722-2.456l0.75,0.465
		c0,0-1.552,3.024-4.705,3.024c-3.542,0-5.687-2.223-5.687-6.384C100.797,20.328,104.261,18.649,106.717,18.649"/>
	<path fill="#FFFFFF" d="M124.964,28.988c0,0-0.414,2.3-2.688,2.3c-0.982,0-1.939-0.465-2.301-1.835h-0.051
		c-0.646,1.137-1.732,1.99-3.49,1.99c-1.81,0-3.955-0.827-3.955-3.541c0-3.36,3.955-3.67,7.471-3.645v-0.724
		c0.077-2.327-0.104-3.98-2.12-3.98c-1.603,0-2.3,0.774-2.455,1.008c0,0,0.517,0.31,0.517,1.034c0,0.646-0.466,1.189-1.241,1.189
		c-0.698,0-1.345-0.491-1.345-1.422c0-1.576,2.069-2.688,4.86-2.688c4.11,0,4.162,2.636,4.11,4.704l-0.129,5.196
		c-0.026,0.905,0.284,1.448,0.904,1.448c0.801,0,1.061-1.241,1.061-1.241L124.964,28.988 M119.897,25.137
		c-4.059-0.052-4.938,0.801-4.938,2.43c0,1.525,0.698,2.559,2.146,2.559c1.318,0,2.688-1.137,2.739-3.076L119.897,25.137z"/>
	<path fill="#FFFFFF" d="M131.917,30.1v0.879c-1.241,0-1.758-0.104-3.283-0.104c-1.474,0-2.016,0.104-3.282,0.104V30.1l2.119-0.129
		V15.134c0-1.422-0.801-1.422-2.119-1.422v-0.879l4.394-0.259v8.686h0.026c0.905-1.422,2.429-2.534,4.42-2.534
		c2.094,0,3.568,1.345,3.568,4.524v6.72l2.118,0.129v0.879c-1.266,0-1.783-0.104-3.282-0.104s-2.016,0.104-3.283,0.104V30.1
		l2.094-0.129v-5.971c0-2.792-0.388-4.058-2.068-4.058c-1.603,0-3.515,1.731-3.515,4.317v5.712L131.917,30.1"/>
	<path fill="#FFFFFF" d="M147.09,30.1v0.879c-1.241,0-1.784-0.104-3.284-0.104c-1.498,0-2.016,0.104-3.282,0.104V30.1l2.094-0.129
		v-8.582c0-1.37-0.517-1.37-2.094-1.37V19.14l4.265-0.258l0.078,2.455h0.025c0.931-1.473,2.43-2.611,4.473-2.611
		c2.093,0,3.567,1.345,3.567,4.524v6.72l2.12,0.129v0.879c-1.267,0-1.784-0.104-3.283-0.104c-1.499,0-2.016,0.104-3.283,0.104V30.1
		l2.094-0.129v-5.971c0-2.792-0.388-4.058-2.068-4.058c-1.577,0-3.515,1.707-3.515,4.343v5.687L147.09,30.1"/>
	<path fill="#FFFFFF" d="M164.771,25.137c0.103,1.318,1.37,5.376,4.833,5.376c2.042,0,3.153-1.188,3.153-2.817
		c0-5.144-8.504-2.481-8.504-8.582c0-3.645,2.921-4.912,4.938-4.912c2.068,0,2.999,0.776,3.334,0.776
		c0.362,0,0.492-0.621,0.492-0.621h0.853c0,0.854-0.051,1.448-0.051,2.275c0,1.215,0.051,1.731,0.051,2.56h-0.853
		c-0.129-1.293-1.189-4.111-4.032-4.111c-1.474,0-2.792,0.957-2.792,2.611c0,4.73,8.764,2.197,8.764,8.711
		c0,3.567-2.611,5.092-5.428,5.092c-2.56,0-3.981-1.007-4.369-1.007c-0.464,0-0.464,0.672-0.464,0.672h-0.854
		c0-1.241,0.077-1.965,0.077-3.205c0-1.19-0.077-1.758-0.077-2.818H164.771"/>
	<path fill="#FFFFFF" d="M182.193,18.649c3.515,0,4.084,2.042,4.084,3.023c0,1.086-0.723,1.732-1.551,1.732
		c-0.724,0-1.267-0.518-1.267-1.241c0-1.085,1.008-1.215,1.008-1.215c0-0.388-0.439-1.396-2.016-1.396
		c-3.05,0-3.542,2.843-3.542,5.454c0,1.784,0.053,5.325,3.283,5.325c2.352,0,3.722-2.456,3.722-2.456l0.75,0.465
		c0,0-1.551,3.024-4.705,3.024c-3.542,0-5.688-2.223-5.688-6.384C176.273,20.328,179.737,18.649,182.193,18.649"/>
	<path fill="#FFFFFF" d="M193.489,30.1v0.879c-1.241,0-1.758-0.104-3.283-0.104c-1.474,0-2.017,0.104-3.283,0.104V30.1l2.12-0.129
		V15.134c0-1.422-0.802-1.422-2.12-1.422v-0.879l4.394-0.259v8.686h0.026c0.905-1.422,2.429-2.534,4.42-2.534
		c2.094,0,3.567,1.345,3.567,4.524v6.72l2.12,0.129v0.879c-1.267,0-1.783-0.104-3.283-0.104c-1.499,0-2.016,0.104-3.283,0.104V30.1
		l2.095-0.129v-5.971c0-2.792-0.389-4.058-2.068-4.058c-1.603,0-3.516,1.731-3.516,4.317v5.712L193.489,30.1"/>
	<path fill="#FFFFFF" d="M201.58,25.137c0-4.395,2.921-6.437,5.894-6.437c3.024,0,5.92,1.784,5.92,6.178
		c0,4.42-2.844,6.437-5.92,6.437C204.449,31.314,201.58,29.557,201.58,25.137 M210.653,25.007c0-3.516-1.009-5.429-3.18-5.429
		c-2.12,0-3.154,1.913-3.154,5.429c0,3.542,1.034,5.428,3.154,5.428C209.644,30.436,210.653,28.549,210.653,25.007z"/>
	<path fill="#FFFFFF" d="M214.685,25.137c0-4.395,2.921-6.437,5.894-6.437c3.024,0,5.919,1.784,5.919,6.178
		c0,4.42-2.843,6.437-5.919,6.437C217.554,31.314,214.685,29.557,214.685,25.137 M223.758,25.007c0-3.516-1.008-5.429-3.18-5.429
		c-2.12,0-3.153,1.913-3.153,5.429c0,3.542,1.034,5.428,3.153,5.428C222.75,30.436,223.758,28.549,223.758,25.007z"/>
	<path fill="#FFFFFF" d="M233.709,30.1v0.879c-1.24,0-1.758-0.104-3.282-0.104c-1.474,0-2.017,0.104-3.283,0.104V30.1l2.12-0.129
		V15.159c0-1.421-0.802-1.421-2.12-1.421v-0.905l4.472-0.259V29.97L233.709,30.1"/>
	<path fill="#FFFFFF" d="M92.836,48.114c0-4.394,2.92-6.436,5.894-6.436c3.024,0,5.919,1.784,5.919,6.178
		c0,4.42-2.843,6.436-5.919,6.436C95.705,54.292,92.836,52.534,92.836,48.114 M101.909,47.985c0-3.516-1.009-5.428-3.179-5.428
		c-2.121,0-3.154,1.913-3.154,5.428c0,3.542,1.034,5.428,3.154,5.428C100.9,53.413,101.909,51.526,101.909,47.985z"/>
	<path fill="#FFFFFF" d="M115.893,37.206c0,0.853-0.569,1.447-1.396,1.447c-0.621,0-1.215-0.568-1.215-1.292
		c0-0.621,0.465-0.957,0.465-0.957s-0.233-0.698-1.267-0.698c-1.37,0-2.611,0.854-2.481,4.266l0.077,2.145h3.206v1.008h-3.153v9.822
		l2.869,0.13v0.879c-1.266,0-2.43-0.104-4.059-0.104c-1.5,0-2.016,0.104-3.283,0.104v-0.879l2.094-0.13v-9.822h-2.404v-1.008h2.404
		v-2.068c0-3.67,2.455-5.221,4.678-5.221C114.394,34.828,115.893,35.732,115.893,37.206"/>
	<path fill="#FFFFFF" d="M120.752,53.077c1.991,0,2.559-0.104,2.559-2.455V38.55l-2.171-0.104v-0.879l5.402,0.104l4.756,12.537
		h0.025l4.886-12.537l5.325-0.104v0.879l-2.301,0.104v14.423l2.301,0.104v0.879c-1.035,0-2.637-0.104-3.671-0.104
		s-2.533,0.104-3.567,0.104v-0.879l2.301-0.104V39.429h-0.026l-5.608,14.475h-1.086l-5.506-14.475h-0.026v11.192
		c0,2.352,0.569,2.455,2.56,2.455v0.879c-1.293,0-2.042-0.104-3.077-0.104c-1.034,0-1.783,0.104-3.076,0.104V53.077"/>
	<path fill="#FFFFFF" d="M152.573,51.319c0,0-1.551,3.025-4.705,3.025c-3.541,0-5.687-2.224-5.687-6.385
		c0-4.601,3.438-6.307,5.558-6.307c4.136,0,4.678,3.076,4.678,4.601c0,0.672-0.103,1.292-0.103,1.292h-7.496
		c0.026,1.603-0.232,5.765,3.283,5.765c2.352,0,3.722-2.456,3.722-2.456L152.573,51.319 M144.869,46.667h4.912
		c0,0,0.104-0.518,0.104-1.086c0-1.06-0.181-3.05-2.249-3.05C146.058,42.53,145.077,43.849,144.869,46.667z"/>
	<path fill="#FFFFFF" d="M167.203,52.973v0.879l-4.265,0.259l-0.078-2.508h-0.026c-0.828,1.474-2.353,2.663-4.446,2.663
		c-2.817,0-4.394-2.456-4.394-5.919c0-5.248,3.67-6.566,5.66-6.566c1.526,0,2.534,0.517,3.103,0.983h0.051V38.11
		c0-1.422-0.801-1.422-2.119-1.422V35.81l4.419-0.259v17.371L167.203,52.973 M162.757,48.812v-4.756
		c-0.285-0.362-1.112-1.292-2.87-1.292c-1.551,0-3.36,0.956-3.36,5.169c0,2.507,0.465,5.014,2.818,5.014
		C160.922,52.947,162.757,51.112,162.757,48.812z"/>
	<path fill="#FFFFFF" d="M174.543,53.077l0,0.879c-1.241,0-1.784-0.104-3.283-0.104c-1.499,0-2.016,0.104-3.282,0.104v-0.879
		l2.094-0.13v-8.53c0-1.421-0.543-1.421-2.094-1.421v-0.879l4.472-0.258v11.088L174.543,53.077 M171.287,35.732
		c0.853,0,1.525,0.672,1.525,1.525s-0.672,1.525-1.525,1.525c-0.853,0-1.525-0.672-1.525-1.525S170.434,35.732,171.287,35.732z"/>
	<path fill="#FFFFFF" d="M181.109,41.626c3.516,0,4.084,2.042,4.084,3.024c0,1.086-0.724,1.732-1.551,1.732
		c-0.724,0-1.267-0.517-1.267-1.24c0-1.086,1.009-1.215,1.009-1.215c0-0.388-0.44-1.396-2.017-1.396
		c-3.05,0-3.542,2.844-3.542,5.455c0,1.784,0.052,5.325,3.283,5.325c2.353,0,3.722-2.456,3.722-2.456l0.75,0.465
		c0,0-1.551,3.025-4.704,3.025c-3.542,0-5.688-2.224-5.688-6.385C175.189,43.306,178.654,41.626,181.109,41.626"/>
	<path fill="#FFFFFF" d="M192.922,53.077v0.879c-1.241,0-1.784-0.104-3.283-0.104s-2.016,0.104-3.282,0.104v-0.879l2.094-0.13v-8.53
		c0-1.421-0.543-1.421-2.094-1.421v-0.879l4.472-0.258v11.088L192.922,53.077 M189.666,35.732c0.853,0,1.525,0.672,1.525,1.525
		s-0.672,1.525-1.525,1.525s-1.526-0.672-1.526-1.525S188.812,35.732,189.666,35.732z"/>
	<path fill="#FFFFFF" d="M200.263,53.077v0.879c-1.24,0-1.784-0.104-3.283-0.104s-2.017,0.104-3.283,0.104v-0.879l2.094-0.13v-8.581
		c0-1.37-0.517-1.37-2.094-1.37v-0.879l4.265-0.258l0.078,2.456h0.026c0.931-1.474,2.43-2.61,4.472-2.61
		c2.094,0,3.567,1.344,3.567,4.523v6.72l2.12,0.13v0.879c-1.267,0-1.784-0.104-3.283-0.104s-2.016,0.104-3.283,0.104v-0.879
		l2.094-0.13v-5.97c0-2.792-0.387-4.058-2.067-4.058c-1.577,0-3.516,1.706-3.516,4.342v5.686L200.263,53.077"/>
	<path fill="#FFFFFF" d="M219.133,51.319c0,0-1.551,3.025-4.704,3.025c-3.542,0-5.687-2.224-5.687-6.385
		c0-4.601,3.438-6.307,5.557-6.307c4.135,0,4.679,3.076,4.679,4.601c0,0.672-0.104,1.292-0.104,1.292h-7.496
		c0.025,1.603-0.233,5.765,3.282,5.765c2.353,0,3.723-2.456,3.723-2.456L219.133,51.319 M211.43,46.667h4.912
		c0,0,0.103-0.518,0.103-1.086c0-1.06-0.181-3.05-2.249-3.05C212.62,42.53,211.637,43.849,211.43,46.667z"/>
	<path fill="#FFFFFF" d="M239.786,51.965c0,0-0.415,2.301-2.688,2.301c-0.983,0-1.939-0.465-2.301-1.835h-0.052
		c-0.646,1.137-1.731,1.99-3.489,1.99c-1.81,0-3.955-0.827-3.955-3.541c0-3.36,3.955-3.671,7.471-3.645v-0.724
		c0.077-2.326-0.104-3.98-2.121-3.98c-1.603,0-2.3,0.775-2.456,1.008c0,0,0.517,0.311,0.517,1.034c0,0.646-0.465,1.189-1.241,1.189
		c-0.698,0-1.344-0.492-1.344-1.421c0-1.577,2.068-2.688,4.86-2.688c4.11,0,4.161,2.636,4.11,4.704l-0.13,5.196
		c-0.026,0.904,0.285,1.447,0.905,1.447c0.801,0,1.06-1.241,1.06-1.241L239.786,51.965 M234.72,48.114
		c-4.059-0.052-4.938,0.802-4.938,2.43c0,1.526,0.698,2.56,2.146,2.56c1.319,0,2.688-1.138,2.74-3.077L234.72,48.114z"/>
	<path fill="#FFFFFF" d="M243.483,50.13c0,1.99,0,3.076,1.292,3.076c1.112,0,1.732-1.604,1.732-1.604l0.828,0.311
		c0,0-0.622,2.353-3,2.353c-3.177,0-3.204-1.81-3.204-3.851v-7.29h-2.249v-1.008h2.249V37.8c1.421,0,2.353-0.491,2.353-0.491v4.808
		h3.335v1.008h-3.335V50.13"/>
	<path fill="#FFFFFF" d="M92.551,76.054c1.396,0,2.456-0.284,2.456-2.973V61.527l-2.042-0.104v-0.879l6.255,0.104l4.006,10.986
		h0.026l4.059-10.986l6.177-0.104v0.879l-2.094,0.104v14.424l2.094,0.103v0.879c-1.034,0-2.972-0.103-4.006-0.103
		c-1.034,0-2.869,0.103-3.903,0.103v-0.879l2.068-0.103V62.665h-0.052l-5.092,14.217h-1.266l-5.144-14.217h-0.052v10.417
		c0,2.688,1.008,2.973,2.663,2.973v0.879c-1.293,0-2.042-0.103-3.076-0.103c-1.034,0-1.784,0.103-3.076,0.103V76.054"/>
	<path fill="#FFFFFF" d="M113.929,71.091c0-4.394,2.973-6.437,6.281-6.437c3.36,0,6.307,1.784,6.307,6.178
		c0,4.42-2.895,6.436-6.307,6.436C116.85,77.269,113.929,75.511,113.929,71.091 M122.744,70.962c0-3.515-0.698-5.428-2.534-5.428
		c-1.784,0-2.507,1.913-2.507,5.428c0,3.541,0.724,5.428,2.507,5.428C122.045,76.39,122.744,74.503,122.744,70.962z"/>
	<path fill="#FFFFFF" d="M128.714,67.395c0-1.422-0.439-1.422-1.758-1.422v-0.879l5.171-0.258v7.108
		c0,2.482,0.051,3.748,1.654,3.748c1.267,0,2.869-1.499,2.869-4.032v-4.265c0-1.422-0.594-1.422-1.731-1.422v-0.879l5.144-0.258
		v11.063l1.757,0.052v0.879l-4.963,0.259l-0.078-2.302h-0.026c-0.828,1.396-2.275,2.431-4.316,2.431
		c-2.714,0-3.723-1.396-3.723-4.343V67.395"/>
	<path fill="#FFFFFF" d="M149.238,76.054v0.879c-1.241,0-1.913-0.103-3.412-0.103c-1.499,0-2.197,0.103-3.464,0.103v-0.879
		l1.758-0.129v-8.582c0-1.37-0.439-1.37-1.758-1.37v-0.879l4.963-0.258l0.051,2.249h0.025c0.879-1.421,2.275-2.456,4.318-2.456
		c2.171,0,3.722,1.318,3.722,4.575v6.721l1.783,0.129v0.879c-1.267,0-1.964-0.103-3.464-0.103c-1.498,0-2.145,0.103-3.411,0.103
		v-0.879l1.706-0.129v-5.972c0-2.792-0.311-3.799-1.681-3.799c-1.266,0-2.842,1.499-2.842,4.032v5.739L149.238,76.054"/>
</g>
<g>
	<g>
		<path fill="#FFFFFF" d="M161.957,73.495c-0.052,1.603,0,2.482,1.06,2.482c0.957,0,1.499-1.371,1.499-1.371l0.828,0.311
			c0,0-0.543,2.378-3.257,2.378c-3.18,0-3.516-1.732-3.516-3.748v-7.444h-1.938v-1.009h1.938v-4.316
			c1.939,0,3.387-0.492,3.387-0.492v4.808h2.895v1.009h-2.895V73.495"/>
		<path fill="#FFFFFF" d="M94.594,93.888c0.207,1.163,1.887,5.557,5.273,5.557c2.12,0,2.972-1.189,2.972-2.534
			c0-4.781-8.917-2.119-8.917-8.659c0-3.852,3.179-5.118,5.532-5.118c2.146,0,3.257,0.698,3.671,0.698
			c0.439,0,0.568-0.568,0.568-0.568h0.853c0,0.853-0.052,1.473-0.052,2.3c0,1.215,0.052,1.913,0.052,2.74h-0.853
			c-0.207-1.137-1.68-4.291-4.446-4.291c-1.55,0-2.61,0.956-2.61,2.301c0,4.394,9.176,1.861,9.176,8.789
			c0,3.799-2.869,5.325-6.023,5.325c-2.74,0-4.162-0.931-4.627-0.931c-0.542,0-0.646,0.621-0.646,0.621h-0.853
			c0-1.241,0.077-1.99,0.077-3.231c0-1.189-0.077-1.94-0.077-2.999H94.594"/>
	</g>
</g>
<g>
	<path fill="#FFFFFF" d="M113.696,99.031v0.879c-1.241,0-1.964-0.104-3.463-0.104c-1.499,0-2.197,0.104-3.464,0.104v-0.879
		l1.758-0.129v-8.53c0-1.422-0.465-1.422-1.758-1.422v-0.878l5.17-0.258v11.089L113.696,99.031 M110.258,81.635
		c1.06,0,2.068,0.698,2.068,1.965s-1.008,1.964-2.068,1.964c-1.085,0-2.094-0.698-2.094-1.964S109.173,81.635,110.258,81.635z"/>
	<path fill="#FFFFFF" d="M121.115,99.031v0.879c-1.241,0-1.913-0.104-3.412-0.104s-2.197,0.104-3.464,0.104v-0.879l1.758-0.129
		V90.32c0-1.37-0.439-1.37-1.758-1.37v-0.878l4.964-0.258l0.052,2.249h0.025c0.879-1.421,2.275-2.456,4.317-2.456
		c2.17,0,3.722,1.319,3.722,4.575v6.721l1.784,0.129v0.879c-1.267,0-1.965-0.104-3.464-0.104s-2.146,0.104-3.412,0.104v-0.879
		l1.706-0.129v-5.971c0-2.792-0.31-3.8-1.68-3.8c-1.266,0-2.843,1.5-2.843,4.032v5.739L121.115,99.031"/>
	<path fill="#FFFFFF" d="M142.879,97.92c0,0-0.362,2.353-3.024,2.353c-1.267,0-2.327-0.518-2.766-1.811h-0.052
		c-0.569,1.086-1.654,1.914-3.542,1.914c-1.81,0-3.955-0.828-3.955-3.542c0-3.36,3.955-3.671,7.47-3.645v-1.266
		c0.078-2.069-0.103-3.438-1.783-3.438c-1.292,0-1.861,0.646-1.99,0.905c0,0,0.568,0.31,0.568,1.189
		c0,0.905-0.672,1.551-1.731,1.551c-1.008,0-1.732-0.621-1.732-1.654c0-1.835,2.352-2.87,5.144-2.87c4.523,0,4.912,2.56,4.86,4.989
		l-0.129,4.885c-0.026,0.801,0.232,1.344,0.801,1.344c0.75,0,1.008-1.112,1.008-1.112L142.879,97.92 M136.96,94.068
		c-3.206-0.052-3.929,0.801-3.929,2.429c0,1.525,0.594,2.301,1.68,2.301c1.008,0,2.146-0.879,2.197-2.74L136.96,94.068z"/>
	<path fill="#FFFFFF" d="M149.833,99.031v0.879c-1.241,0-1.964-0.104-3.464-0.104s-2.197,0.104-3.464,0.104v-0.879l1.758-0.129
		v-8.53c0-1.422-0.465-1.422-1.758-1.422v-0.878l5.17-0.258v11.089L149.833,99.031 M146.395,81.635c1.06,0,2.068,0.698,2.068,1.965
		s-1.008,1.964-2.068,1.964c-1.085,0-2.094-0.698-2.094-1.964S145.31,81.635,146.395,81.635z"/>
</g>
</svg>
