<?xml version="1.0" encoding="utf-8"?>
<!-- Generator: Adobe Illustrator 13.0.0, SVG Export Plug-In . SVG Version: 6.00 Build 14576)  -->
<!DOCTYPE svg PUBLIC "-//W3C//DTD SVG 1.1//EN" "http://www.w3.org/Graphics/SVG/1.1/DTD/svg11.dtd">
<svg version="1.1" id="Layer_1" xmlns="http://www.w3.org/2000/svg" xmlns:xlink="http://www.w3.org/1999/xlink" x="0px" y="0px"
	 width="271.946px" height="110.42px" viewBox="0 0 271.946 110.42" enable-background="new 0 0 271.946 110.42"
	 xml:space="preserve">
<g>
	<g>
		<g>
			<path fill="#FFFFFF" d="M65.993,28.171L65.993,28.171l21.729,31.115h7.206L69.638,22.645l0.004-0.007l-3.822-5.541l-0.006,0.008
				l-2.505-3.63l0.005-0.006l-3.824-5.54l-0.005,0.007l-2.431-3.521l0.004-0.007l-2.198-3.183C54.614,0.869,54.191,0,53.25,0
				c-0.122,0-0.234,0.015-0.338,0.04c-0.001,0-0.003,0-0.004,0c-0.002,0.001-0.004,0.002-0.007,0.002
				c-0.085,0.021-0.166,0.052-0.242,0.086c-0.002,0.002-0.004,0.002-0.006,0.003c-0.554,0.259-0.834,0.84-1.023,1.096l-2.033,3.044
				l-8.461,12.633l-2.734-4.094l-2.019-3.04h0c-0.249-0.357-0.673-1.223-1.615-1.223c-0.18,0-0.342,0.032-0.486,0.085
				c-0.629,0.228-0.931,0.87-1.134,1.14l-2.177,3.264l0,0L0,59.286h7.207l27.537-40.668l2.634,3.897L12.751,59.286h7.208
				l21.138-31.269l2.578,3.811l-18.17,27.458h7.207l14.673-21.968l0,0l2.656,3.929v0l0,0L38.255,59.286h7.208l8.284-12.557
				l8.488,12.557h7.208L57.379,41.225l2.531-3.835l15.069,21.897h7.208L63.55,31.874l0,0l0,0L65.993,28.171L65.993,28.171
				 M55.775,13.542L55.775,13.542L55.775,13.542l-2.313,3.495l-2.477-3.645l2.305-3.41L55.775,13.542z M47.224,18.955l2.533,3.681
				l-2.386,3.605l-2.521-3.775L47.224,18.955z M53.677,35.682l-2.601-3.894l2.453-3.671l2.61,3.793L53.677,35.682z M59.784,26.334
				L59.784,26.334l-2.554-3.756l0-0.001l2.374-3.554l2.561,3.667L59.784,26.334L59.784,26.334z"/>
		</g>
	</g>
	<g>
		<path fill="#FFFFFF" d="M110.117,34.062c-1.195,0-3.07-0.114-3.951-0.114s-2.757,0.114-3.951,0.114v-0.967l2.501-0.114V17.122
			l-2.501-0.113v-0.967c1.193,0,3.07,0.114,3.951,0.114s2.756-0.114,3.951-0.114v0.967l-2.501,0.113v15.859l2.501,0.114V34.062"/>
		<path fill="#FFFFFF" d="M117.336,20.504c3.865,0,4.491,2.245,4.491,3.324c0,1.194-0.796,1.905-1.706,1.905
			c-0.796,0-1.393-0.569-1.393-1.364c0-1.193,1.108-1.336,1.108-1.336c0-0.426-0.483-1.534-2.217-1.534
			c-3.354,0-3.893,3.125-3.893,5.996c0,1.961,0.056,5.855,3.609,5.855c2.586,0,4.093-2.699,4.093-2.699l0.825,0.511
			c0,0-1.707,3.325-5.173,3.325c-3.894,0-6.253-2.444-6.253-7.02C110.827,22.351,114.636,20.504,117.336,20.504"/>
		<path fill="#FFFFFF" d="M137.399,31.873c0,0-0.455,2.529-2.957,2.529c-1.08,0-2.132-0.512-2.529-2.018h-0.057
			c-0.71,1.25-1.905,2.188-3.837,2.188c-1.99,0-4.349-0.91-4.349-3.894c0-3.694,4.349-4.035,8.214-4.008v-0.795
			c0.084-2.558-0.115-4.376-2.332-4.376c-1.762,0-2.529,0.851-2.699,1.108c0,0,0.568,0.341,0.568,1.137
			c0,0.71-0.512,1.307-1.364,1.307c-0.768,0-1.479-0.54-1.479-1.563c0-1.732,2.275-2.955,5.344-2.955
			c4.519,0,4.576,2.898,4.519,5.172l-0.142,5.712c-0.029,0.995,0.312,1.592,0.995,1.592c0.881,0,1.166-1.364,1.166-1.364
			L137.399,31.873 M131.828,27.638c-4.462-0.057-5.429,0.881-5.429,2.671c0,1.676,0.768,2.813,2.359,2.813
			c1.45,0,2.956-1.25,3.012-3.382L131.828,27.638z"/>
		<path fill="#FFFFFF" d="M145.044,33.095v0.967c-1.365,0-1.934-0.114-3.61-0.114c-1.62,0-2.216,0.114-3.609,0.114v-0.967
			l2.331-0.142V16.64c0-1.564-0.881-1.564-2.331-1.564v-0.966l4.831-0.284v9.55h0.029c0.995-1.564,2.671-2.786,4.86-2.786
			c2.302,0,3.923,1.479,3.923,4.975v7.389l2.329,0.142v0.967c-1.391,0-1.96-0.114-3.608-0.114s-2.217,0.114-3.609,0.114v-0.967
			l2.302-0.142v-6.565c0-3.069-0.427-4.462-2.273-4.462c-1.763,0-3.865,1.903-3.865,4.746v6.281L145.044,33.095"/>
		<path fill="#FFFFFF" d="M161.727,33.095v0.967c-1.364,0-1.961-0.114-3.61-0.114c-1.647,0-2.217,0.114-3.608,0.114v-0.967
			l2.302-0.142v-9.436c0-1.507-0.568-1.507-2.302-1.507v-0.966l4.689-0.284l0.085,2.7h0.028c1.024-1.62,2.671-2.871,4.917-2.871
			c2.301,0,3.922,1.479,3.922,4.975v7.389l2.331,0.142v0.967c-1.393,0-1.961-0.114-3.61-0.114c-1.648,0-2.217,0.114-3.609,0.114
			v-0.967l2.302-0.142v-6.565c0-3.069-0.427-4.462-2.274-4.462c-1.733,0-3.865,1.876-3.865,4.774v6.253L161.727,33.095"/>
		<path fill="#FFFFFF" d="M181.167,27.638c0.113,1.449,1.506,5.911,5.314,5.911c2.246,0,3.467-1.307,3.467-3.098
			c0-5.656-9.351-2.729-9.351-9.436c0-4.007,3.212-5.4,5.429-5.4c2.274,0,3.298,0.854,3.666,0.854c0.398,0,0.541-0.683,0.541-0.683
			h0.938c0,0.938-0.057,1.592-0.057,2.501c0,1.335,0.057,1.904,0.057,2.814h-0.938c-0.142-1.421-1.307-4.52-4.433-4.52
			c-1.621,0-3.07,1.053-3.07,2.871c0,5.201,9.635,2.416,9.635,9.578c0,3.922-2.871,5.598-5.968,5.598
			c-2.814,0-4.377-1.107-4.804-1.107c-0.511,0-0.511,0.739-0.511,0.739h-0.938c0-1.364,0.085-2.16,0.085-3.524
			c0-1.308-0.085-1.933-0.085-3.098H181.167"/>
		<path fill="#FFFFFF" d="M200.322,20.504c3.865,0,4.49,2.245,4.49,3.324c0,1.194-0.795,1.905-1.705,1.905
			c-0.796,0-1.393-0.569-1.393-1.364c0-1.193,1.108-1.336,1.108-1.336c0-0.426-0.483-1.534-2.216-1.534
			c-3.354,0-3.895,3.125-3.895,5.996c0,1.961,0.058,5.855,3.61,5.855c2.586,0,4.093-2.699,4.093-2.699l0.824,0.511
			c0,0-1.705,3.325-5.172,3.325c-3.894,0-6.253-2.444-6.253-7.02C193.813,22.351,197.623,20.504,200.322,20.504"/>
		<path fill="#FFFFFF" d="M212.743,33.095v0.967c-1.364,0-1.933-0.114-3.61-0.114c-1.62,0-2.217,0.114-3.61,0.114v-0.967
			l2.332-0.142V16.64c0-1.564-0.882-1.564-2.332-1.564v-0.966l4.831-0.284v9.55h0.029c0.995-1.564,2.671-2.786,4.859-2.786
			c2.303,0,3.922,1.479,3.922,4.975v7.389l2.332,0.142v0.967c-1.393,0-1.96-0.114-3.61-0.114c-1.648,0-2.216,0.114-3.609,0.114
			v-0.967l2.303-0.142v-6.565c0-3.069-0.427-4.462-2.274-4.462c-1.762,0-3.865,1.903-3.865,4.746v6.281L212.743,33.095"/>
		<path fill="#FFFFFF" d="M221.638,27.638c0-4.832,3.211-7.077,6.48-7.077c3.325,0,6.509,1.961,6.509,6.792
			c0,4.86-3.126,7.077-6.509,7.077C224.792,34.43,221.638,32.498,221.638,27.638 M231.614,27.496c0-3.865-1.109-5.969-3.496-5.969
			c-2.331,0-3.468,2.104-3.468,5.969c0,3.894,1.137,5.969,3.468,5.969C230.505,33.464,231.614,31.39,231.614,27.496z"/>
		<path fill="#FFFFFF" d="M236.048,27.638c0-4.832,3.212-7.077,6.479-7.077c3.326,0,6.508,1.961,6.508,6.792
			c0,4.86-3.126,7.077-6.508,7.077C239.202,34.43,236.048,32.498,236.048,27.638 M246.024,27.496c0-3.865-1.109-5.969-3.497-5.969
			c-2.33,0-3.467,2.104-3.467,5.969c0,3.894,1.137,5.969,3.467,5.969C244.915,33.464,246.024,31.39,246.024,27.496z"/>
		<path fill="#FFFFFF" d="M256.965,33.095v0.967c-1.364,0-1.933-0.114-3.609-0.114c-1.621,0-2.217,0.114-3.61,0.114v-0.967
			l2.331-0.142V16.667c0-1.563-0.882-1.563-2.331-1.563v-0.995l4.917-0.284v19.127L256.965,33.095"/>
		<path fill="#FFFFFF" d="M102.074,52.902c0-4.832,3.211-7.077,6.48-7.077c3.325,0,6.508,1.961,6.508,6.792
			c0,4.86-3.126,7.077-6.508,7.077C105.229,59.694,102.074,57.762,102.074,52.902 M112.05,52.759c0-3.865-1.109-5.968-3.496-5.968
			c-2.332,0-3.468,2.103-3.468,5.968c0,3.895,1.136,5.969,3.468,5.969C110.94,58.728,112.05,56.654,112.05,52.759z"/>
		<path fill="#FFFFFF" d="M127.425,40.908c0,0.938-0.625,1.591-1.535,1.591c-0.682,0-1.335-0.625-1.335-1.42
			c0-0.683,0.511-1.052,0.511-1.052s-0.256-0.768-1.393-0.768c-1.507,0-2.872,0.938-2.729,4.69l0.085,2.358h3.525v1.109h-3.467
			v10.799l3.154,0.143v0.967c-1.393,0-2.671-0.115-4.462-0.115c-1.649,0-2.217,0.115-3.609,0.115v-0.967l2.303-0.143V47.417h-2.643
			v-1.109h2.643v-2.273c0-4.036,2.699-5.741,5.143-5.741C125.777,38.293,127.425,39.288,127.425,40.908"/>
		<path fill="#FFFFFF" d="M132.769,58.358c2.188,0,2.813-0.114,2.813-2.7V42.387l-2.387-0.115v-0.966l5.939,0.114l5.229,13.784
			h0.028l5.372-13.784l5.855-0.114v0.966l-2.53,0.115v15.857l2.53,0.114v0.967c-1.138,0-2.899-0.115-4.036-0.115
			c-1.137,0-2.785,0.115-3.923,0.115v-0.967l2.53-0.114V43.353h-0.029l-6.166,15.915h-1.194l-6.054-15.915h-0.028v12.306
			c0,2.585,0.625,2.7,2.814,2.7v0.967c-1.422,0-2.246-0.115-3.383-0.115c-1.136,0-1.961,0.115-3.381,0.115V58.358"/>
		<path fill="#FFFFFF" d="M167.755,56.426c0,0-1.706,3.326-5.173,3.326c-3.894,0-6.252-2.445-6.252-7.021
			c0-5.06,3.779-6.935,6.11-6.935c4.547,0,5.144,3.383,5.144,5.059c0,0.739-0.113,1.42-0.113,1.42h-8.242
			c0.029,1.762-0.255,6.338,3.609,6.338c2.586,0,4.093-2.7,4.093-2.7L167.755,56.426 M159.285,51.31h5.4
			c0,0,0.114-0.569,0.114-1.194c0-1.165-0.199-3.354-2.472-3.354C160.592,46.762,159.513,48.212,159.285,51.31z"/>
		<path fill="#FFFFFF" d="M183.84,58.244v0.966l-4.689,0.285l-0.085-2.758h-0.028c-0.91,1.621-2.586,2.928-4.888,2.928
			c-3.098,0-4.831-2.701-4.831-6.509c0-5.77,4.035-7.219,6.223-7.219c1.678,0,2.787,0.568,3.411,1.081h0.057v-5.116
			c0-1.564-0.881-1.564-2.33-1.564v-0.965l4.859-0.284v19.099L183.84,58.244 M178.952,53.668v-5.229
			c-0.313-0.398-1.222-1.42-3.155-1.42c-1.705,0-3.694,1.051-3.694,5.684c0,2.756,0.511,5.512,3.098,5.512
			C176.935,58.215,178.952,56.198,178.952,53.668z"/>
		<path fill="#FFFFFF" d="M191.912,58.358l0,0.967c-1.364,0-1.961-0.115-3.61-0.115s-2.217,0.115-3.609,0.115v-0.967l2.302-0.143
			v-9.378c0-1.563-0.597-1.563-2.302-1.563v-0.966l4.917-0.284v12.192L191.912,58.358 M188.332,39.288
			c0.938,0,1.677,0.739,1.677,1.677s-0.739,1.677-1.677,1.677c-0.938,0-1.677-0.739-1.677-1.677S187.394,39.288,188.332,39.288z"/>
		<path fill="#FFFFFF" d="M199.13,45.768c3.866,0,4.491,2.245,4.491,3.325c0,1.194-0.795,1.904-1.705,1.904
			c-0.796,0-1.393-0.568-1.393-1.364c0-1.194,1.109-1.336,1.109-1.336c0-0.427-0.484-1.535-2.217-1.535
			c-3.354,0-3.894,3.127-3.894,5.997c0,1.961,0.058,5.855,3.609,5.855c2.586,0,4.092-2.7,4.092-2.7l0.825,0.511
			c0,0-1.705,3.326-5.172,3.326c-3.895,0-6.253-2.445-6.253-7.021C192.622,47.615,196.432,45.768,199.13,45.768"/>
		<path fill="#FFFFFF" d="M212.119,58.358v0.967c-1.365,0-1.961-0.115-3.61-0.115c-1.648,0-2.217,0.115-3.608,0.115v-0.967
			l2.302-0.143v-9.378c0-1.563-0.597-1.563-2.302-1.563v-0.966l4.917-0.284v12.192L212.119,58.358 M208.539,39.288
			c0.938,0,1.676,0.739,1.676,1.677s-0.739,1.677-1.676,1.677c-0.938,0-1.678-0.739-1.678-1.677S207.601,39.288,208.539,39.288z"/>
		<path fill="#FFFFFF" d="M220.19,58.358v0.967c-1.363,0-1.961-0.115-3.609-0.115s-2.218,0.115-3.609,0.115v-0.967l2.302-0.143
			v-9.435c0-1.507-0.569-1.507-2.302-1.507v-0.966l4.689-0.284l0.085,2.7h0.029c1.023-1.621,2.671-2.87,4.917-2.87
			c2.302,0,3.922,1.478,3.922,4.974v7.388l2.331,0.143v0.967c-1.393,0-1.961-0.115-3.61-0.115s-2.217,0.115-3.61,0.115v-0.967
			l2.302-0.143v-6.564c0-3.07-0.426-4.462-2.273-4.462c-1.733,0-3.865,1.875-3.865,4.775v6.251L220.19,58.358"/>
		<path fill="#FFFFFF" d="M240.938,56.426c0,0-1.705,3.326-5.172,3.326c-3.895,0-6.253-2.445-6.253-7.021
			c0-5.06,3.78-6.935,6.11-6.935c4.546,0,5.145,3.383,5.145,5.059c0,0.739-0.113,1.42-0.113,1.42h-8.242
			c0.027,1.762-0.256,6.338,3.608,6.338c2.587,0,4.094-2.7,4.094-2.7L240.938,56.426 M232.468,51.31h5.401
			c0,0,0.113-0.569,0.113-1.194c0-1.165-0.199-3.354-2.472-3.354C233.776,46.762,232.696,48.212,232.468,51.31z"/>
		<path fill="#FFFFFF" d="M263.646,57.136c0,0-0.456,2.53-2.955,2.53c-1.081,0-2.132-0.512-2.531-2.018h-0.057
			c-0.71,1.25-1.904,2.188-3.836,2.188c-1.99,0-4.348-0.909-4.348-3.893c0-3.694,4.348-4.036,8.214-4.008v-0.796
			c0.084-2.558-0.115-4.377-2.332-4.377c-1.762,0-2.529,0.853-2.7,1.108c0,0,0.568,0.342,0.568,1.137
			c0,0.711-0.512,1.308-1.365,1.308c-0.767,0-1.478-0.54-1.478-1.562c0-1.733,2.274-2.956,5.344-2.956
			c4.52,0,4.575,2.899,4.52,5.172l-0.143,5.713c-0.029,0.994,0.313,1.591,0.995,1.591c0.88,0,1.165-1.364,1.165-1.364
			L263.646,57.136 M258.076,52.902c-4.462-0.057-5.429,0.881-5.429,2.671c0,1.678,0.768,2.815,2.36,2.815
			c1.45,0,2.955-1.251,3.012-3.383L258.076,52.902z"/>
		<path fill="#FFFFFF" d="M267.711,55.119c0,2.188,0,3.382,1.421,3.382c1.223,0,1.905-1.763,1.905-1.763l0.91,0.342
			c0,0-0.684,2.586-3.299,2.586c-3.494,0-3.523-1.99-3.523-4.234v-8.015h-2.473v-1.109h2.473v-4.747
			c1.562,0,2.586-0.539,2.586-0.539v5.286h3.667v1.109h-3.667V55.119"/>
		<path fill="#FFFFFF" d="M101.761,83.622c1.535,0,2.701-0.312,2.701-3.269V67.649l-2.246-0.114v-0.967l6.878,0.115l4.405,12.079
			h0.028l4.462-12.079l6.792-0.115v0.967l-2.302,0.114v15.859l2.302,0.113v0.966c-1.137,0-3.268-0.113-4.405-0.113
			c-1.137,0-3.154,0.113-4.291,0.113v-0.966l2.273-0.113V68.9h-0.058l-5.599,15.632h-1.392L105.655,68.9h-0.058v11.453
			c0,2.957,1.108,3.269,2.927,3.269v0.966c-1.421,0-2.245-0.113-3.382-0.113s-1.961,0.113-3.382,0.113V83.622"/>
		<path fill="#FFFFFF" d="M125.266,78.165c0-4.831,3.268-7.077,6.906-7.077c3.694,0,6.935,1.961,6.935,6.793
			c0,4.86-3.183,7.077-6.935,7.077C128.477,84.958,125.266,83.024,125.266,78.165 M134.958,78.023c0-3.865-0.768-5.969-2.786-5.969
			c-1.961,0-2.757,2.104-2.757,5.969c0,3.893,0.796,5.968,2.757,5.968C134.189,83.992,134.958,81.917,134.958,78.023z"/>
		<path fill="#FFFFFF" d="M141.521,74.102c0-1.564-0.483-1.564-1.933-1.564v-0.966l5.686-0.285v7.816c0,2.729,0.057,4.12,1.818,4.12
			c1.393,0,3.154-1.647,3.154-4.433v-4.689c0-1.564-0.653-1.564-1.903-1.564v-0.966L154,71.287v12.165l1.933,0.057v0.966
			l-5.457,0.285l-0.085-2.531h-0.028c-0.91,1.535-2.501,2.672-4.746,2.672c-2.984,0-4.094-1.535-4.094-4.775V74.102"/>
		<path fill="#FFFFFF" d="M164.088,83.622v0.966c-1.364,0-2.103-0.113-3.751-0.113c-1.648,0-2.416,0.113-3.809,0.113v-0.966
			l1.933-0.142v-9.436c0-1.506-0.482-1.506-1.933-1.506v-0.966l5.458-0.285l0.056,2.473h0.028c0.967-1.562,2.502-2.7,4.748-2.7
			c2.387,0,4.092,1.449,4.092,5.03v7.39l1.961,0.142v0.966c-1.393,0-2.16-0.113-3.809-0.113c-1.647,0-2.358,0.113-3.75,0.113v-0.966
			l1.875-0.142v-6.566c0-3.069-0.341-4.177-1.848-4.177c-1.392,0-3.125,1.648-3.125,4.433v6.31L164.088,83.622"/>
	</g>
	<g>
		<g>
			<path fill="#FFFFFF" d="M178.072,80.808c-0.057,1.763,0,2.729,1.165,2.729c1.052,0,1.648-1.507,1.648-1.507l0.911,0.342
				c0,0-0.597,2.614-3.581,2.614c-3.497,0-3.866-1.904-3.866-4.121V72.68h-2.132v-1.109h2.132v-4.746
				c2.132,0,3.724-0.541,3.724-0.541v5.287h3.183v1.109h-3.183V80.808"/>
			<path fill="#FFFFFF" d="M104.006,103.23c0.227,1.278,2.074,6.11,5.798,6.11c2.331,0,3.268-1.308,3.268-2.786
				c0-5.257-9.805-2.33-9.805-9.521c0-4.235,3.496-5.627,6.083-5.627c2.358,0,3.581,0.767,4.036,0.767
				c0.482,0,0.625-0.625,0.625-0.625h0.938c0,0.938-0.057,1.62-0.057,2.529c0,1.336,0.057,2.104,0.057,3.013h-0.938
				c-0.228-1.25-1.847-4.718-4.889-4.718c-1.705,0-2.87,1.051-2.87,2.53c0,4.831,10.09,2.046,10.09,9.663
				c0,4.177-3.155,5.854-6.623,5.854c-3.013,0-4.576-1.023-5.087-1.023c-0.597,0-0.71,0.683-0.71,0.683h-0.938
				c0-1.365,0.084-2.188,0.084-3.552c0-1.308-0.084-2.133-0.084-3.297H104.006"/>
		</g>
	</g>
	<g>
		<path fill="#FFFFFF" d="M125.009,108.885v0.967c-1.364,0-2.16-0.115-3.808-0.115c-1.648,0-2.416,0.115-3.809,0.115v-0.967
			l1.933-0.142v-9.378c0-1.564-0.511-1.564-1.933-1.564v-0.966l5.685-0.284v12.192L125.009,108.885 M121.23,89.758
			c1.165,0,2.273,0.768,2.273,2.16s-1.108,2.16-2.273,2.16c-1.194,0-2.302-0.767-2.302-2.16S120.036,89.758,121.23,89.758z"/>
		<path fill="#FFFFFF" d="M133.167,108.885v0.967c-1.364,0-2.103-0.115-3.752-0.115c-1.648,0-2.416,0.115-3.809,0.115v-0.967
			l1.933-0.142v-9.436c0-1.506-0.483-1.506-1.933-1.506v-0.966l5.458-0.284l0.057,2.472h0.028c0.966-1.562,2.501-2.7,4.747-2.7
			c2.386,0,4.092,1.45,4.092,5.031v7.389l1.961,0.142v0.967c-1.393,0-2.161-0.115-3.809-0.115c-1.648,0-2.359,0.115-3.751,0.115
			v-0.967l1.875-0.142v-6.564c0-3.07-0.341-4.179-1.847-4.179c-1.393,0-3.126,1.649-3.126,4.433v6.31L133.167,108.885"/>
		<path fill="#FFFFFF" d="M157.097,107.664c0,0-0.398,2.587-3.325,2.587c-1.393,0-2.558-0.569-3.041-1.991h-0.057
			c-0.625,1.194-1.819,2.104-3.895,2.104c-1.989,0-4.348-0.91-4.348-3.895c0-3.694,4.348-4.037,8.214-4.007v-1.392
			c0.085-2.274-0.113-3.78-1.961-3.78c-1.421,0-2.046,0.71-2.188,0.994c0,0,0.624,0.341,0.624,1.308
			c0,0.995-0.739,1.706-1.903,1.706c-1.108,0-1.904-0.682-1.904-1.819c0-2.018,2.586-3.155,5.655-3.155
			c4.973,0,5.4,2.814,5.343,5.486l-0.142,5.371c-0.029,0.881,0.255,1.478,0.881,1.478c0.825,0,1.109-1.222,1.109-1.222
			L157.097,107.664 M150.589,103.429c-3.524-0.058-4.32,0.881-4.32,2.671c0,1.677,0.654,2.531,1.848,2.531
			c1.108,0,2.359-0.967,2.416-3.013L150.589,103.429z"/>
		<path fill="#FFFFFF" d="M164.742,108.885v0.967c-1.364,0-2.159-0.115-3.809-0.115c-1.648,0-2.416,0.115-3.809,0.115v-0.967
			l1.933-0.142v-9.378c0-1.564-0.511-1.564-1.933-1.564v-0.966l5.685-0.284v12.192L164.742,108.885 M160.962,89.758
			c1.166,0,2.273,0.768,2.273,2.16s-1.108,2.16-2.273,2.16c-1.194,0-2.303-0.767-2.303-2.16S159.769,89.758,160.962,89.758z"/>
	</g>
</g>
</svg>
